<svg width="1880" height="929" style="overflow: hidden;" aria-label="A chart."><defs id="_ABSTRACT_RENDERER_ID_26"><clipPath id="_ABSTRACT_RENDERER_ID_27"><rect x="311" y="178" width="1258" height="574"></rect></clipPath></defs><rect x="0" y="0" width="1880" height="929" stroke="none" stroke-width="0" fill="#ffffff"></rect><g><text text-anchor="start" x="311" y="146.3" font-family="Arial" font-size="18" font-weight="bold" stroke="none" stroke-width="0" fill="#000000">Band mean across images</text><rect x="311" y="131" width="1258" height="18" stroke="none" stroke-width="0" fill-opacity="0" fill="#ffffff"></rect></g><g><rect x="311" y="178" width="1258" height="574" stroke="none" stroke-width="0" fill-opacity="0" fill="#ffffff"></rect><g clip-path="url(https://code.earthengine.google.com/#_ABSTRACT_RENDERER_ID_27)"><g><rect x="313" y="178" width="1" height="574" stroke="none" stroke-width="0" fill="#ebebeb"></rect><rect x="346" y="178" width="1" height="574" stroke="none" stroke-width="0" fill="#ebebeb"></rect><rect x="379" y="178" width="1" height="574" stroke="none" stroke-width="0" fill="#ebebeb"></rect><rect x="411" y="178" width="1" height="574" stroke="none" stroke-width="0" fill="#ebebeb"></rect><rect x="444" y="178" width="1" height="574" stroke="none" stroke-width="0" fill="#ebebeb"></rect><rect x="453" y="178" width="1" height="574" stroke="none" stroke-width="0" fill="#cccccc"></rect><rect x="476" y="178" width="1" height="574" stroke="none" stroke-width="0" fill="#ebebeb"></rect><rect x="509" y="178" width="1" height="574" stroke="none" stroke-width="0" fill="#ebebeb"></rect><rect x="542" y="178" width="1" height="574" stroke="none" stroke-width="0" fill="#ebebeb"></rect><rect x="574" y="178" width="1" height="574" stroke="none" stroke-width="0" fill="#ebebeb"></rect><rect x="583" y="178" width="1" height="574" stroke="none" stroke-width="0" fill="#cccccc"></rect><rect x="607" y="178" width="1" height="574" stroke="none" stroke-width="0" fill="#ebebeb"></rect><rect x="639" y="178" width="1" height="574" stroke="none" stroke-width="0" fill="#ebebeb"></rect><rect x="672" y="178" width="1" height="574" stroke="none" stroke-width="0" fill="#ebebeb"></rect><rect x="704" y="178" width="1" height="574" stroke="none" stroke-width="0" fill="#ebebeb"></rect><rect x="728" y="178" width="1" height="574" stroke="none" stroke-width="0" fill="#cccccc"></rect><rect x="737" y="178" width="1" height="574" stroke="none" stroke-width="0" fill="#ebebeb"></rect><rect x="769" y="178" width="1" height="574" stroke="none" stroke-width="0" fill="#ebebeb"></rect><rect x="802" y="178" width="1" height="574" stroke="none" stroke-width="0" fill="#ebebeb"></rect><rect x="835" y="178" width="1" height="574" stroke="none" stroke-width="0" fill="#ebebeb"></rect><rect x="867" y="178" width="1" height="574" stroke="none" stroke-width="0" fill="#ebebeb"></rect><rect x="867" y="178" width="1" height="574" stroke="none" stroke-width="0" fill="#cccccc"></rect><rect x="900" y="178" width="1" height="574" stroke="none" stroke-width="0" fill="#ebebeb"></rect><rect x="932" y="178" width="1" height="574" stroke="none" stroke-width="0" fill="#ebebeb"></rect><rect x="965" y="178" width="1" height="574" stroke="none" stroke-width="0" fill="#ebebeb"></rect><rect x="998" y="178" width="1" height="574" stroke="none" stroke-width="0" fill="#ebebeb"></rect><rect x="1012" y="178" width="1" height="574" stroke="none" stroke-width="0" fill="#cccccc"></rect><rect x="1030" y="178" width="1" height="574" stroke="none" stroke-width="0" fill="#ebebeb"></rect><rect x="1063" y="178" width="1" height="574" stroke="none" stroke-width="0" fill="#ebebeb"></rect><rect x="1095" y="178" width="1" height="574" stroke="none" stroke-width="0" fill="#ebebeb"></rect><rect x="1128" y="178" width="1" height="574" stroke="none" stroke-width="0" fill="#ebebeb"></rect><rect x="1151" y="178" width="1" height="574" stroke="none" stroke-width="0" fill="#cccccc"></rect><rect x="1161" y="178" width="1" height="574" stroke="none" stroke-width="0" fill="#ebebeb"></rect><rect x="1193" y="178" width="1" height="574" stroke="none" stroke-width="0" fill="#ebebeb"></rect><rect x="1226" y="178" width="1" height="574" stroke="none" stroke-width="0" fill="#ebebeb"></rect><rect x="1258" y="178" width="1" height="574" stroke="none" stroke-width="0" fill="#ebebeb"></rect><rect x="1291" y="178" width="1" height="574" stroke="none" stroke-width="0" fill="#ebebeb"></rect><rect x="1296" y="178" width="1" height="574" stroke="none" stroke-width="0" fill="#cccccc"></rect><rect x="1323" y="178" width="1" height="574" stroke="none" stroke-width="0" fill="#ebebeb"></rect><rect x="1356" y="178" width="1" height="574" stroke="none" stroke-width="0" fill="#ebebeb"></rect><rect x="1389" y="178" width="1" height="574" stroke="none" stroke-width="0" fill="#ebebeb"></rect><rect x="1421" y="178" width="1" height="574" stroke="none" stroke-width="0" fill="#ebebeb"></rect><rect x="1440" y="178" width="1" height="574" stroke="none" stroke-width="0" fill="#cccccc"></rect><rect x="1454" y="178" width="1" height="574" stroke="none" stroke-width="0" fill="#ebebeb"></rect><rect x="1486" y="178" width="1" height="574" stroke="none" stroke-width="0" fill="#ebebeb"></rect><rect x="1519" y="178" width="1" height="574" stroke="none" stroke-width="0" fill="#ebebeb"></rect><rect x="1552" y="178" width="1" height="574" stroke="none" stroke-width="0" fill="#ebebeb"></rect><rect x="311" y="751" width="1258" height="1" stroke="none" stroke-width="0" fill="#cccccc"></rect><rect x="311" y="679" width="1258" height="1" stroke="none" stroke-width="0" fill="#cccccc"></rect><rect x="311" y="608" width="1258" height="1" stroke="none" stroke-width="0" fill="#cccccc"></rect><rect x="311" y="536" width="1258" height="1" stroke="none" stroke-width="0" fill="#cccccc"></rect><rect x="311" y="465" width="1258" height="1" stroke="none" stroke-width="0" fill="#cccccc"></rect><rect x="311" y="393" width="1258" height="1" stroke="none" stroke-width="0" fill="#cccccc"></rect><rect x="311" y="321" width="1258" height="1" stroke="none" stroke-width="0" fill="#cccccc"></rect><rect x="311" y="250" width="1258" height="1" stroke="none" stroke-width="0" fill="#cccccc"></rect><rect x="311" y="178" width="1258" height="1" stroke="none" stroke-width="0" fill="#cccccc"></rect><rect x="311" y="715" width="1258" height="1" stroke="none" stroke-width="0" fill="#ebebeb"></rect><rect x="311" y="644" width="1258" height="1" stroke="none" stroke-width="0" fill="#ebebeb"></rect><rect x="311" y="572" width="1258" height="1" stroke="none" stroke-width="0" fill="#ebebeb"></rect><rect x="311" y="500" width="1258" height="1" stroke="none" stroke-width="0" fill="#ebebeb"></rect><rect x="311" y="429" width="1258" height="1" stroke="none" stroke-width="0" fill="#ebebeb"></rect><rect x="311" y="357" width="1258" height="1" stroke="none" stroke-width="0" fill="#ebebeb"></rect><rect x="311" y="285" width="1258" height="1" stroke="none" stroke-width="0" fill="#ebebeb"></rect><rect x="311" y="214" width="1258" height="1" stroke="none" stroke-width="0" fill="#ebebeb"></rect></g><g><rect x="311" y="679" width="1258" height="1" stroke="none" stroke-width="0" fill="#333333"></rect></g><g><path d="M311.5,594.8610395778817L311.5002714662018,615.7091291201891L325.4987601881071,593.5704576399547L325.49901322607525,624.359532822128L334.7777787087688,432.94405065930897L334.7780450560168,500.5923238575525L348.77654579399257,631.8498811309669L348.77680001740265,664.4730813369532L358.05538218766696,669.953855828726L358.05566044321796,671.2710802586317L372.054181441474,670.8729691871793L372.0544336711863,667.5622936257134L381.3331754450412,668.8350698809205L381.3334435165684,664.0379518319568L395.3318807256335,633.4722943536565L395.3321341946715,665.9678207322886L404.6110266274189,621.6474101569991L404.61130084169065,667.7511271641139L418.6098260428771,601.9626158743117L418.61007908084525,649.0822816881386L427.8887659471854,568.2824371722108L427.8890354196894,638.221476550827L441.88759542976163,562.4949579007807L441.8878494376368,634.2922544814295L451.16653064618595,569.2330516295909L451.16680523764376,624.5961845334136L465.16530662222414,509.6352850279267L465.16555928300625,568.4921939481236L474.4443924975409,676.4295268444623L474.4446599224634,689.8365489490899L488.44318081295194,492.56457434983906L488.4434350363621,561.1981498994921L497.72213946879623,502.9048538088007L497.7223873339269,571.4974613805566L511.72092821527707,435.23612076299395L511.72118179208246,514.2689020508974L520.9998266830016,437.39171969125084L521.0000966943428,519.8652322244088L534.9986092867379,517.1800575477056L534.9988628096596,570.547810924911L544.2777201641027,443.10762597711414L544.2779927618626,525.0880101450379L558.2765554122373,504.61330147897684L558.2768091506939,546.3379299163248L567.5553967093306,593.3601788337528L567.5556632182297,607.6368880485053L581.5541791514157,492.6190406652919L581.5544332131747,460.9614121976756L590.8333429964812,449.2185331669612L590.8336133311248,440.9246163270259L604.8322246385023,433.4010927528787L604.8324785386101,490.64473916337L614.1108409710477,419.5581238937242L614.1111094197609,480.7772914238677L628.1095857484097,681.4268178136153L628.1098391096803,679.9113083951423L637.3890652982144,652.8215830661496L637.3893287357414,654.9370431352544L651.3878507577881,508.58656823971535L651.3881050889656,580.9262585000516L660.6664812078691,617.7782653857113L660.6667496026987,639.3423805231835L674.6653025001192,468.3350346908681L674.6655567235293,537.2903972941492L683.9445089672105,462.79249289330284L683.9447765537841,507.0997157141122L697.9433004617613,678.2657896049009L697.9435544157527,676.0628729144895L707.222038571523,588.5171329906316L707.2223048110036,635.7092081312777L721.2208220373989,684.223048563879L721.2210763685764,672.0044192532L730.5000952664242,591.0151330684567L730.5003604282304,616.9950797377205L744.4988716735322,390.16914848466746L744.4991260585934,455.87109164699507L753.7776698097625,383.3570211191287L753.7779323312661,455.28314271603335L767.7764736975698,382.6557196621695L767.7767286214682,453.2600968413476L777.0555213154425,672.6106508667625L777.0557882015278,674.4637376506106L791.0542723972002,587.2416789743265L791.0545263511917,620.1075067189411L800.3331914485073,602.2783600596974L800.3334537005924,611.2246590133719L814.3319366030553,372.9668217647242L814.3321911497678,447.9339963801086L823.6110916111901,647.8628740394489L823.6113553181357,651.6369040246292L837.6098808965082,394.9201411594616L837.6101353354532,465.6628685738823L846.8887471417657,360.9742359197853L846.8890118186183,420.4257669434122L860.8875565257129,681.9909135598419L860.8878111263091,670.7521355220845L870.1666408922854,668.6022045534702L870.1669072934171,672.760934074024L884.1654484980696,318.7739841639198L884.1657025598286,370.86106188612257L893.4442973388842,516.1462776546625L893.44456336283,541.1713509906641L907.4430595745729,615.1774125145098L907.4433135824481,622.5723401360269L916.7221844078222,648.8818091453188L916.7224509706051,642.5082649863588L930.7210426104233,596.5183857466099L930.7212968877171,554.3062267368836L939.9998873560749,658.5168098991627L940.0001538649741,661.8005399869566L953.9987333809544,502.95956028259195L953.9989879815506,546.1656907859883L963.2778625787853,632.4663469820053L963.2781261779635,642.6176234474428L977.2766488466149,488.1879983563721L977.2769033394436,483.56032889455383L986.5555511939675,248.2137869020342L986.5558142004246,321.80047962655345L1000.5543582609145,253.3181400832608L1000.5546131309293,288.97623489361905L1009.8333435353185,282.6570306193593L1009.8336106369386,331.21398810129295L1023.8321424658232,315.1606265716173L1023.8323964198147,389.1072415732368L1033.111103169249,236.80568723739367L1033.1113671456133,264.53878475827753L1047.109886042404,413.1578587403887L1047.1101407507676,448.2254718762705L1056.388941150114,701.1211106864523L1056.3892065274551,663.4693449729052L1070.3877332373859,529.0454484354289L1070.3879874069123,496.7331969062606L1079.6666686154613,224.90713747913844L1079.6669333461978,222.60531122519018L1093.6654531590118,270.9858062358081L1093.6657076518404,345.10946738351845L1102.944438002346,638.7293441517138L1102.9447058583382,630.7861133742242L1116.943211876919,208.99877263338482L1116.9434656153755,235.71058931901257L1126.2221498414133,209.99009428418577L1126.222417589638,205.45927502142257L1140.2209828264313,499.8855288206081L1140.2212370498414,511.02228677049857L1149.5000243554432,639.4945067974736L1149.5002916725985,618.659344056436L1163.4988256029483,217.61366149160506L1163.499079664707,234.41315566231867L1172.7777906709557,479.8966501920652L1172.7780559405292,457.31378039635763L1186.7765885776694,289.50514139697447L1186.776843286033,356.27091753015594L1196.0555566631656,280.54062318671396L1196.055824465274,303.34538184342824L1210.0543240178079,359.7039932385633L1210.0545778101482,425.0706772073388L1219.3333157582588,224.1187638862683L1219.3335825365766,215.80941698138133L1233.3320785327846,454.57573466914914L1233.3323325406598,340.4269649964783L1242.611136334681,218.77733473795945L1242.6114024125104,205.36011015226717L1256.6099352651859,222.4721415830793L1256.610189273061,214.80831673361507L1265.8888511373532,334.29219053348845L1265.8891178079034,203.1516501209283L1279.8876594975095,514.7482106430525L1279.8879139903383,534.7483444069053L1289.1666521539837,233.3518505800938L1289.1669197944411,227.82591358543567L1303.1654099712068,342.0191488361688L1303.1656637096635,269.40157951697506L1312.4444025737973,278.87758468507195L1312.4446689210454,383.6813105946873L1326.4431661026954,229.7691719188357L1326.4434202722218,204.9338911135668L1335.7221888801712,482.9971294386367L1335.7224550657681,479.5090439498467L1349.7209885111643,258.1598603653004L1349.721242626807,288.51805343259593L1358.9999557884046,219.5049501027836L1359.000221057978,202.659844783471L1372.998772500538,687.9780178998785L1372.9990272089017,705.0853675740257L1382.2777118121255,278.1399667719626L1382.2779775127688,227.7143262080703L1396.276469952651,217.9997397331312L1396.2767241221775,204.76794950957617L1405.555665912416,237.90213859495378L1405.5558305810769,254.38544570041643L1419.5543068558418,657.6106374708987L1419.5545617797402,664.5957775750552L1428.8332209498462,690.8541094106479L1428.8334858422338,661.8448084131596L1442.832019826467,211.24666831319996L1442.8322742654123,212.43678227260568L1452.1110265465934,365.22076971796236L1452.1112883137248,288.5614165680412L1466.1098183105628,207.95984802854167L1466.1100734499962,199.61638185613117L1475.388737307986,207.8064609753108L1475.3889992367688,202.39483477623594L1489.3874966339536,303.65258780767044L1489.3877512884335,304.8211341737092L1498.6665209740574,668.8803398477928L1498.6667824178867,655.646868467371L1512.6652661286055,221.15900444123315L1512.6655211063878,222.1075690128157L1521.9442333519619,666.5669378429596L1521.94449969921,675.0606026882712L1535.9430320669317,596.4227497377063L1535.9432861825744,605.4059898727782L1545.2219167943067,394.15873819505657L1545.2221829799034,349.2211674930779L1559.2207275253468,186.5637875236814L1559.2209820181756,187.2089353246555L1568.499730904682,266.1369784902037L1568.5,229.73243026323667" stroke="#3366cc" stroke-width="2" fill-opacity="1" fill="none"></path></g></g><g></g><g><g><text text-anchor="middle" x="453.59772882030813" y="778.3" font-family="Arial" font-size="18" stroke="none" stroke-width="0" fill="#444444">February 2023</text></g><g><text text-anchor="middle" x="583.9532340676241" y="778.3" font-family="Arial" font-size="18" stroke="none" stroke-width="0" fill="#444444">March 2023</text></g><g><text text-anchor="middle" x="728.0814191848201" y="778.3" font-family="Arial" font-size="18" stroke="none" stroke-width="0" fill="#444444">April 2023</text></g><g><text text-anchor="middle" x="867.7480319498015" y="778.3" font-family="Arial" font-size="18" stroke="none" stroke-width="0" fill="#444444">May 2023</text></g><g><text text-anchor="middle" x="1012.0701984736156" y="778.3" font-family="Arial" font-size="18" stroke="none" stroke-width="0" fill="#444444">June 2023</text></g><g><text text-anchor="middle" x="1151.736811238597" y="778.3" font-family="Arial" font-size="18" stroke="none" stroke-width="0" fill="#444444">July 2023</text></g><g><text text-anchor="middle" x="1296.058977762411" y="778.3" font-family="Arial" font-size="18" stroke="none" stroke-width="0" fill="#444444">August 2023</text></g><g><text text-anchor="middle" x="1440.3811442862252" y="778.3" font-family="Arial" font-size="18" stroke="none" stroke-width="0" fill="#444444">September</text><text text-anchor="middle" x="1440.3811442862252" y="802.3" font-family="Arial" font-size="18" stroke="none" stroke-width="0" fill="#444444">2023</text></g><g><text text-anchor="middle" x="313.93111605532675" y="778.3" font-family="Arial" font-size="18" stroke="none" stroke-width="0" fill="#444444">2</text></g><g><text text-anchor="middle" x="346.51999236715574" y="778.3" font-family="Arial" font-size="18" stroke="none" stroke-width="0" fill="#444444">9</text></g><g><text text-anchor="middle" x="802.5702793261435" y="778.3" font-family="Arial" font-size="18" stroke="none" stroke-width="0" fill="#444444">17</text></g><g><text text-anchor="middle" x="932.9257845734595" y="778.3" font-family="Arial" font-size="18" stroke="none" stroke-width="0" fill="#444444">15</text></g><g><text text-anchor="middle" x="1519.5255581863812" y="778.3" font-family="Arial" font-size="18" stroke="none" stroke-width="0" fill="#444444">18</text></g><g><text text-anchor="middle" x="1552.1144344982101" y="778.3" font-family="Arial" font-size="18" stroke="none" stroke-width="0" fill="#444444">25</text></g><g><text text-anchor="end" x="293" y="757.8" font-family="Arial" font-size="18" stroke="none" stroke-width="0" fill="#444444">-0.1</text></g><g><text text-anchor="end" x="293" y="686.175" font-family="Arial" font-size="18" stroke="none" stroke-width="0" fill="#444444">0.0</text></g><g><text text-anchor="end" x="293" y="614.55" font-family="Arial" font-size="18" stroke="none" stroke-width="0" fill="#444444">0.1</text></g><g><text text-anchor="end" x="293" y="542.925" font-family="Arial" font-size="18" stroke="none" stroke-width="0" fill="#444444">0.2</text></g><g><text text-anchor="end" x="293" y="471.3" font-family="Arial" font-size="18" stroke="none" stroke-width="0" fill="#444444">0.3</text></g><g><text text-anchor="end" x="293" y="399.675" font-family="Arial" font-size="18" stroke="none" stroke-width="0" fill="#444444">0.4</text></g><g><text text-anchor="end" x="293" y="328.05" font-family="Arial" font-size="18" stroke="none" stroke-width="0" fill="#444444">0.5</text></g><g><text text-anchor="end" x="293" y="256.425" font-family="Arial" font-size="18" stroke="none" stroke-width="0" fill="#444444">0.6</text></g><g><text text-anchor="end" x="293" y="184.8" font-family="Arial" font-size="18" stroke="none" stroke-width="0" fill="#444444">0.7</text></g></g></g><g><g><text text-anchor="middle" x="940" y="873.3" font-family="Arial" font-size="18" font-style="italic" stroke="none" stroke-width="0" fill="#222222">Image (labeled by system:time_start)</text><rect x="311" y="858" width="1258" height="18" stroke="none" stroke-width="0" fill-opacity="0" fill="#ffffff"></rect></g><g><text text-anchor="middle" x="137.3" y="465" font-family="Arial" font-size="18" font-style="italic" transform="rotate(-90 137.3 465)" stroke="none" stroke-width="0" fill="#222222">Band mean</text><path d="M121.99999999999999,752L122.00000000000001,178L140.00000000000003,178L139.99999999999997,752Z" stroke="none" stroke-width="0" fill-opacity="0" fill="#ffffff"></path></g></g><g></g></svg>